<?xml version="1.0" encoding="UTF-8"?><svg id="a" xmlns="http://www.w3.org/2000/svg" viewBox="0 0 1006 205.382"><path d="M58.571,87.915h-3.184V52.603c0-6.947-8.104-11.578-10.999-12.446l-2.894,4.342c1.737,.579,7.236,2.605,7.236,7.815v30.97c-6.078-4.342-10.13-9.551-10.13-16.498v-28.654h39.943v28.654c0,7.236-4.342,12.446-10.13,16.498v-30.97c0-5.21,5.789-7.236,7.236-7.815l-2.894-4.342c-3.184,.868-10.999,5.499-10.999,12.446v35.601h-3.184v-.289Z" fill="#009870" fill-rule="evenodd"/><path d="M92.436,166.353h2.026v-6.947h8.394v6.947h2.026v-15.63h-2.026v6.947h-8.394v-6.947h-2.026v15.63h0Zm21.129-16.498h1.737l1.447-2.026,1.447,2.026h2.026l-2.316-3.184h-2.026l-2.316,3.184h0Zm-2.894,8.683c0-3.763,2.605-6.657,6.368-6.657s6.368,2.894,6.368,6.657-2.605,6.657-6.368,6.657c-4.052,0-6.368-2.894-6.368-6.657h0Zm-2.316,0c0,5.21,3.763,8.104,8.394,8.104s8.394-3.473,8.394-8.104c0-5.21-3.763-8.104-8.394-8.104s-8.394,3.473-8.394,8.104h0Zm22.287-6.368h2.316c2.605,0,3.473,1.447,3.473,3.184,0,2.316-1.737,3.184-3.473,3.184h-2.605l.289-6.368h0Zm-2.026,14.183h2.026v-6.368h2.316c2.605,0,5.499-1.158,5.499-4.631,0-2.894-2.026-4.631-4.92-4.631h-4.631l-.289,15.63h0Zm13.025,0h2.026v-15.63h-2.026v15.63h0Zm4.92-13.893h4.92v13.893h2.026v-13.893h4.92v-1.737h-11.867v1.737h0Zm11.288,13.893h2.026l2.026-5.21h6.368l2.026,5.21h2.026l-6.368-15.63h-1.737l-6.368,15.63h0Zm9.841-6.657h-5.21l2.605-6.947h0l2.605,6.947h0Zm16.209,6.657v-1.447h-6.657v-13.893h-2.026v15.63h8.683v-.289Zm20.261-15.63v9.551c0,3.473-2.026,4.631-4.342,4.631-2.894,0-4.342-1.447-4.342-4.052v-10.13h-2.026v9.841c0,4.631,2.605,6.368,6.078,6.368,3.184,0,6.368-1.158,6.368-6.078v-9.841h-1.737v-.289Zm6.078,15.63h2.026v-12.446h0l8.394,12.446h2.026v-15.63h-2.026v12.446h0l-8.394-12.446h-1.737l-.289,15.63h0Zm17.077,0h2.026v-15.63h-2.026v15.63h0Zm10.999,0h1.737l6.657-15.63h-2.026l-5.499,13.314-5.21-13.314h-2.026l6.368,15.63h0Zm10.999,0h8.394v-1.447h-6.368v-5.499h6.078v-1.737h-6.078v-5.21h6.078v-1.737h-8.104v15.63h0Zm11.867,0h2.026v-6.657h1.158c1.447,0,2.026,.868,2.894,2.026l3.473,4.631h2.316l-3.473-4.631c-.579-.868-1.447-2.316-2.605-2.316h0c2.316-.289,4.052-1.737,4.052-4.342s-2.026-4.052-4.92-4.052h-4.631l-.289,15.34h0Zm2.026-14.183h2.316c2.605,0,3.473,1.447,3.473,3.184,0,2.316-2.026,2.894-4.052,2.894h-2.026l.289-6.078h0Zm11.867,13.314c1.447,.868,2.605,1.158,4.342,1.158,3.473,0,5.21-2.026,5.21-4.631,0-4.92-6.947-4.052-6.947-7.525,0-1.737,1.447-2.605,2.894-2.605s2.316,.579,3.184,1.158l.868-1.447c-1.158-.868-2.605-1.158-4.052-1.158-2.894,0-4.631,1.737-4.631,4.052,0,5.499,6.947,3.763,6.947,7.815,0,1.737-1.158,2.894-3.184,2.894-1.158,0-2.605-.579-3.184-1.158l-1.447,1.447h0Zm12.735,.868h2.026v-15.63h-1.737l-.289,15.63h0Zm5.21-13.893h4.92v13.893h2.026v-13.893h4.92v-1.737h-11.867v1.737h0Zm10.999,13.893h2.026l2.026-5.21h6.368l2.026,5.21h2.026l-6.368-15.63h-1.737l-6.368,15.63h0Zm10.13-6.657h-5.21l2.605-6.947h0l2.605,6.947h0Zm7.525,6.657h2.026v-15.63h-2.026v15.63h0Zm6.657,0h2.026v-6.657h1.158c1.447,0,2.026,.868,2.894,2.026l3.473,4.631h2.316l-3.473-4.631c-.579-.868-1.447-2.316-2.605-2.316h0c2.316-.289,4.052-1.737,4.052-4.342s-2.026-4.052-4.92-4.052h-4.631l-.289,15.34h0Zm2.026-14.183h2.316c2.605,0,3.473,1.447,3.473,3.184,0,2.316-2.026,2.894-4.052,2.894h-2.026l.289-6.078h0Zm12.156,14.183h8.394v-1.447h-6.368v-5.499h6.078v-1.737h-6.078v-5.21h6.078v-1.737h-8.104v15.63h0Zm20.261-14.183h2.316c4.052,0,6.947,2.316,6.947,6.368,0,4.342-2.894,6.368-7.236,6.368h-2.026v-12.735h0Zm-2.026,14.183h4.342c5.21,0,8.973-2.605,8.973-8.104,0-3.763-2.316-7.525-8.394-7.525h-4.631l-.289,15.63h0Zm16.787,0h8.394v-1.447h-6.368v-5.499h6.078v-1.737h-6.078v-5.21h6.078v-1.737h-7.815l-.289,15.63h0Zm18.235,0h4.342c3.184,0,5.21-1.447,5.21-4.342,0-2.026-1.158-3.473-3.184-3.763h0c1.737-.579,2.894-1.737,2.894-3.763,0-1.737-1.158-3.763-4.631-3.763h-4.342l-.289,15.63h0Zm2.026-7.236h1.737c2.316,0,3.763,.868,3.763,2.894s-1.158,2.894-3.184,2.894h-2.316v-5.789h0Zm.289-6.947h1.447c2.605,0,3.473,.868,3.473,2.605,0,1.447-1.158,2.605-3.763,2.605h-1.447l.289-5.21h0Zm10.999,14.183h8.394v-1.447h-6.368v-5.499h6.078v-1.737h-6.078v-5.21h6.078v-1.737h-8.104v15.63h0Zm11.578,0h2.026v-6.657h1.158c1.447,0,2.026,.868,2.894,2.026l3.184,4.631h2.605l-3.473-4.631c-.579-.868-1.447-2.316-2.605-2.316h0c2.316-.289,4.052-1.737,4.052-4.342s-2.026-4.052-4.92-4.052h-4.631l-.289,15.34h0Zm2.316-14.183h2.316c2.605,0,3.473,1.447,3.473,3.184,0,2.316-2.026,2.894-4.052,2.894h-2.026l.289-6.078h0Zm12.156,14.183h2.026v-12.446h0l8.394,12.446h1.737l.289-15.63h-2.026v12.446h0l-8.394-12.446h-1.737l-.289,15.63h0Zm17.077,0h8.394v-1.447h-6.368v-5.499h6.078v-1.737h-6.078v-5.21h6.078v-1.737h-8.104v15.63h0Z" fill="#677078" fill-rule="evenodd"/><path d="M102.856,122.647v9.551c0,3.473-2.026,4.631-4.342,4.631-2.894,0-4.342-1.447-4.342-4.052v-10.13h-2.026v9.841c0,4.631,2.605,6.368,6.078,6.368,3.184,0,6.368-1.158,6.368-6.078v-9.841h-1.737v-.289h0Zm6.368,15.63h2.026v-12.446h0l8.394,12.446h1.737v-15.63h-2.026v12.446h0l-8.394-12.446h-1.737v15.63h0Zm17.077,0h2.026v-15.63h-2.026v15.63h0Zm10.999,0h1.737l6.657-15.63h-2.026l-5.499,13.314-4.92-13.314h-2.316l6.368,15.63h0Zm10.999,0h8.394v-1.737h-6.368v-5.499h6.078v-1.737h-6.078v-5.21h6.078v-1.737h-8.104v15.919h0Zm11.867,0h2.026v-6.657h1.158c1.447,0,2.026,.868,2.894,2.026l3.473,4.631h2.316l-3.473-4.631c-.579-.868-1.447-2.316-2.605-2.316h0c2.316-.289,4.052-1.737,4.052-4.342s-2.026-4.052-4.92-4.052h-4.631l-.289,15.34h0Zm2.026-14.472h2.316c2.605,0,3.473,1.447,3.473,3.184,0,2.316-2.026,2.894-4.052,2.894h-2.026l.289-6.078h0Zm11.867,13.314c1.447,.868,2.605,1.158,4.342,1.158,3.473,0,5.21-2.026,5.21-4.631,0-4.92-6.947-4.052-6.947-7.525,0-1.737,1.447-2.605,2.894-2.605s2.316,.579,3.184,1.158l.868-1.447c-1.158-.868-2.605-1.158-4.052-1.158-2.894,0-4.631,1.737-4.631,4.052,0,5.499,6.947,3.763,6.947,7.815,0,1.737-1.158,2.894-3.184,2.894-1.158,0-2.605-.579-3.184-1.158l-1.447,1.447h0Zm12.735,1.158h2.026v-15.63h-2.026v15.63h0Zm4.92-14.183h4.92v13.893h2.026v-13.893h4.92v-1.737h-11.867v1.737h0Zm15.919-2.605h2.026v-2.316h-2.026v2.316h0Zm3.763,0h2.026v-2.316h-2.026v2.316h0Zm-8.394,16.787h2.026l2.026-5.21h6.368l2.026,5.21h2.026l-6.368-15.63h-1.737l-6.368,15.63h0Zm10.13-6.947h-5.21l2.605-6.947h0l2.605,6.947h0Zm4.342-7.236h4.92v13.893h2.026v-13.893h4.92v-1.737h-11.867v1.737h0Zm13.604,13.025c1.447,.868,2.605,1.158,4.342,1.158,3.473,0,5.21-2.026,5.21-4.631,0-4.92-6.947-4.052-6.947-7.525,0-1.737,1.447-2.605,2.894-2.605s2.316,.579,3.184,1.158l.868-1.447c-1.158-.868-2.605-1.158-4.052-1.158-2.894,0-4.631,1.737-4.631,4.052,0,5.499,6.947,3.763,6.947,7.815,0,1.737-1.158,2.894-3.184,2.894-1.158,0-2.605-.579-3.184-1.158l-1.447,1.447h0Zm11.578,0c1.447,.868,2.605,1.158,4.342,1.158,3.473,0,5.21-2.026,5.21-4.631,0-4.92-6.947-4.052-6.947-7.525,0-1.737,1.447-2.605,2.894-2.605s2.316,.579,3.184,1.158l.868-1.447c-1.158-.868-2.605-1.158-4.052-1.158-2.894,0-4.631,1.737-4.631,4.052,0,5.499,6.947,3.763,6.947,7.815,0,1.737-1.158,2.894-3.184,2.894-1.158,0-2.605-.579-3.184-1.158l-1.447,1.447h0Zm14.761-13.314h2.316c2.605,0,3.473,1.447,3.473,3.184,0,2.316-1.737,3.184-3.473,3.184h-2.605l.289-6.368h0Zm-2.026,14.472h2.026v-6.368h2.316c2.605,0,5.499-1.158,5.499-4.631,0-2.894-2.026-4.631-4.92-4.631h-4.631l-.289,15.63h0Zm13.025,0h2.026v-15.63h-2.026v15.63h0Zm4.92-14.183h4.92v13.893h2.026v-13.893h4.92v-1.737h-11.867v1.737h0Zm11.288,14.183h2.026l2.026-5.21h6.368l2.026,5.21h2.026l-6.368-15.63h-1.737l-6.368,15.63h0Zm9.841-6.947h-5.21l2.605-6.947h0l2.605,6.947h0Zm16.209,6.947v-1.737h-6.657v-13.893h-2.026v15.63h8.683Zm9.551,0h4.342c3.184,0,5.21-1.447,5.21-4.342,0-2.026-1.158-3.473-3.184-3.763h0c1.737-.579,2.894-1.737,2.894-3.763,0-1.737-1.158-3.763-4.631-3.763h-4.342l-.289,15.63h0Zm2.026-7.525h1.737c2.316,0,3.763,.868,3.763,2.894s-1.158,2.894-3.184,2.894h-2.316v-5.789h0Zm0-6.947h1.447c2.605,0,3.473,.868,3.473,2.605,0,1.447-1.158,2.605-3.763,2.605h-1.447l.289-5.21h0Zm10.999,14.472h8.394v-1.737h-6.368v-5.499h6.078v-1.737h-6.078v-5.21h6.078v-1.737h-8.104v15.919h0Zm11.867,0h2.026v-6.657h1.158c1.447,0,2.026,.868,2.894,2.026l3.473,4.631h2.316l-3.473-4.631c-.579-.868-1.447-2.316-2.605-2.316h0c2.316-.289,4.052-1.737,4.052-4.342s-2.026-4.052-4.92-4.052h-4.631l-.289,15.34h0Zm2.026-14.472h2.316c2.605,0,3.473,1.447,3.473,3.184,0,2.316-2.026,2.894-4.052,2.894h-2.026l.289-6.078h0Zm12.446,14.472h2.026v-12.446h0l8.394,12.446h1.737l.289-15.63h-2.026v12.446h0l-8.394-12.446h-1.737l-.289,15.63h0Z" fill="#677078" fill-rule="evenodd"/><path d="M308.357,62.733h6.368c6.657,0,9.262,3.763,9.262,8.394,0,6.078-4.631,8.394-8.973,8.394h-6.657v-16.787h0Zm-.289,37.917v-17.077h6.078c6.947,0,14.761-3.184,14.761-12.446,0-7.815-5.21-11.867-13.314-11.867h-12.446v41.679h4.92v-.289Zm32.996,0h5.21V58.971h-5.21v41.679h0Zm16.209-37.338h13.025v37.338h4.92V63.312h13.025v-4.342h-31.549v4.342h.579Zm32.417,37.338h5.499l5.789-13.893h17.077l5.499,13.893h5.789l-16.787-41.679h-4.92l-17.945,41.679h0Zm26.628-18.235h-13.604l6.947-18.814h0l6.657,18.814h0Zm45.153,18.235v-4.342h-17.366V58.971h-5.21v41.679h22.576Z" fill="#009870" fill-rule="evenodd"/><path d="M179.268,58.971c2.026,.579,3.763,1.447,5.499,2.316h.289v.289l-2.894,5.789v.289l-.289-.289c-1.158-.579-2.316-1.447-3.763-2.026-1.158-.579-2.316-.868-3.184-.868-2.026,0-3.473,.579-4.631,1.447-1.158,1.158-1.737,2.605-1.737,4.052h0c0,3.473,3.184,4.631,6.657,6.368,4.92,2.026,10.42,4.342,10.42,12.446h0c0,3.473-1.447,6.368-3.763,8.683s-5.789,3.473-10.13,3.473h0c-2.605,0-4.92-.579-7.236-1.447s-4.342-1.737-6.078-2.894h-.289v-.289l3.473-5.789v-.289h.289c.289,.289,.579,.289,.868,.579,2.316,1.447,5.499,3.184,8.104,3.184,1.737,0,3.473-.579,4.92-1.447,1.158-.868,1.737-2.026,1.737-3.763,0-3.473-3.184-4.92-6.947-6.657-4.92-2.316-10.42-4.631-10.42-12.156,0-3.473,1.447-6.947,4.052-8.973,2.605-2.316,5.789-3.473,9.841-3.473,1.158,.579,3.184,.868,5.21,1.447h0Z" fill="#677078" fill-rule="evenodd"/><polygon points="232.235 100.939 232.235 58.971 240.339 58.971 240.339 93.703 256.548 93.703 256.548 100.939 232.235 100.939" fill="#677078" fill-rule="evenodd"/><polygon points="196.055 100.939 196.055 58.971 218.921 58.971 218.921 65.917 204.159 65.917 203.87 76.048 218.631 76.048 218.631 82.705 204.159 82.705 204.159 93.703 218.921 93.703 218.921 100.939 196.055 100.939" fill="#677078" fill-rule="evenodd"/><polygon points="113.565 100.939 113.565 58.681 122.248 58.681 140.772 89.362 140.772 58.971 148.298 58.971 148.298 100.939 139.325 100.939 121.09 70.548 121.38 100.939 113.565 100.939" fill="#677078" fill-rule="evenodd"/><polygon points="92.436 100.939 92.436 58.971 100.54 58.971 100.54 100.939 92.436 100.939" fill="#677078" fill-rule="evenodd"/><path d="M266.099,98.045c3.473,2.026,6.947,3.184,11.288,3.184,9.262,0,13.314-5.789,13.314-11.867,0-13.025-18.524-10.999-18.524-19.971,0-4.92,4.052-7.236,7.815-7.236s6.368,1.447,8.683,3.184l2.026-3.763c-3.184-2.026-6.947-3.184-10.999-3.184-7.525,0-12.735,4.631-12.735,10.999,0,14.472,18.235,10.13,18.235,20.84,0,4.631-3.473,7.525-8.104,7.525-3.473,0-7.815-2.026-10.13-3.763l-2.026,3.473,1.158,.579h0Z" fill="#009870" fill-rule="evenodd"/><rect x="500.256" y="58.681" width="1.737" height="107.671" fill="#677078"/><path d="M664.657,162.011c-.868-.579-6.078-3.184-6.078-3.184,0,0-2.026-2.605-2.316-3.473-.579-1.737-2.894-11.578-2.894-11.578,0,0-1.447-25.181-1.447-26.339,0-1.447-.579-4.342-1.447-6.078-.579-1.447-.579-3.184-.579-3.184,0,0,.579-9.262,1.737-10.709,1.158-1.447,2.605-2.026,4.342-2.316,.868,0,2.894-10.13,.579-17.366-1.737-5.21-5.21-9.262-5.21-9.262,0,0,1.737,0,2.316-.579,.579-.289,1.447-1.158,1.737-2.605,.289-2.316-1.158-4.631-3.473-5.789s-4.631,.289-5.499,1.158c-1.447,1.158-2.026,3.184-2.026,3.184,0,0-4.052-1.158-7.525-.868-3.184,0-7.815,.868-7.815,.868,0,0-.579-2.026-1.737-3.184-1.158-.868-3.184-2.026-5.499-1.158-2.316,1.158-3.763,3.473-3.473,5.789,.289,1.737,1.158,2.316,1.737,2.605,.868,.289,2.026,.289,2.026,.289,0,0-3.184,3.184-4.052,6.368-1.158,.579-6.368,.868-7.525,.868-2.605,.579-4.342,.868-7.525,3.184-19.682-2.316-40.232-.579-50.073,7.815-4.052,3.473-8.973,7.525-12.446,19.971-2.026,7.236-2.316,22.576-2.316,27.497v26.628c0,2.894,2.316,5.21,4.631,5.21h18.235s0-3.473-1.158-4.052c-.868-.579-6.078-3.184-6.078-3.184,0,0-.289-1.737-.289-3.763,2.605-3.473,12.156-17.945,13.314-19.971l3.473,1.158c.289,1.447,3.184,21.419,4.342,24.602,.868,2.894,2.316,4.92,4.631,4.92h18.235s0-3.473-1.158-4.052c-.868-.579-6.078-3.184-6.078-3.184,0,0-.579-1.447-1.158-3.473,0-.868-.289-3.184-.579-5.499l-4.92-8.394,11.578-6.657-11.578-6.657,10.42-17.945,11.578,6.657v-13.314h20.84v13.314l11.578-6.657,10.42,17.945-11.578,6.657,11.578,6.657-8.394,14.761c1.158,2.316,2.316,4.052,2.894,4.92,1.737,2.894,2.894,4.92,5.21,4.92h18.235c-.579,.579-.869-2.894-1.737-3.473Z" fill="#003063"/><path d="M636.292,134.804l11.578-6.657-10.42-17.945-11.578,6.657v-13.314h-20.84v13.314l-11.578-6.657-10.42,17.945,11.578,6.657-11.578,6.657,4.92,8.394,5.499,9.551,11.578-6.657v13.314h20.84v-13.314l1.447,.868,10.13,5.789,2.026-3.184,8.394-14.761-11.577-6.657Zm0,19.971l-13.604-7.815v15.919h-14.183v-15.919l-13.604,7.815-6.947-12.156,13.604-7.815-13.604-7.815,6.947-12.156,13.604,7.815v-15.63h14.183v15.63l13.604-7.815,6.947,12.156-13.604,7.815,13.604,7.815-6.947,12.156Z" fill="#a7d5c2"/><polygon points="629.635 134.804 643.239 126.989 636.292 114.832 622.689 122.647 622.689 107.018 608.506 107.018 608.506 122.647 594.902 114.832 587.956 126.989 601.56 134.804 587.956 142.619 594.902 154.775 608.506 146.96 608.506 162.879 622.689 162.879 622.689 146.96 636.292 154.775 643.239 142.619 629.635 134.804" fill="#009870"/><path d="M631.372,74.6h0c0-.868-.868-1.447-2.026-1.447s-2.026,.579-2.026,1.447v.289c-.579,0-1.158,.579-1.158,.868,0,.579,.579,.868,1.447,.868h2.894c.868,0,1.447-.289,1.447-.868,.579-.579,0-.868-.579-1.158Z" fill="#fff"/><path d="M646.133,74.6h0c0-.868-.868-1.447-2.026-1.447s-2.026,.579-2.026,1.447v.289c-.579,0-1.158,.579-1.158,.868,0,.579,.579,.868,1.447,.868h2.894c.868,0,1.447-.289,1.447-.868,.289-.579,0-.868-.579-1.158Z" fill="#fff"/><g><path d="M639.187,90.52c-.579-.579-1.158-.868-1.737-.868h-1.158c-.579,0-1.158,.289-1.737,.868-.289,.289-.579,.579-1.158,.868,.579,1.158,.868,2.026,3.184,2.026h.289c2.316,0,2.605-.868,3.184-2.026-.289-.289-.579-.579-.868-.868Z" fill="#fff"/><path d="M641.792,80.679c-.868-1.447-3.184-2.894-4.631-2.894h-.289c-1.737,0-3.763,1.447-4.631,2.894-.868,1.158-2.026,5.21-.868,8.683,0,.289,.579,.868,1.158,1.158,.868-.579,1.737-1.158,2.316-1.447-.579-.579-.868-1.737-.868-2.316,0-2.026,.579-2.316,2.894-2.316h.289c2.316,0,2.894,.289,2.894,2.316,0,.579-.289,1.447-.868,2.316,.579,.289,1.447,.868,2.316,1.447,.579-.289,1.158-.579,1.158-1.158,1.158-3.473,0-7.236-.868-8.683Z" fill="#fff"/></g><g><path d="M680.866,60.707v15.63c0,1.158,.289,2.026,.579,2.605,.289,.868,.868,1.447,1.158,1.737,.579,.579,1.158,.868,1.737,.868,.579,.289,1.447,.289,2.026,.289,1.737,0,2.894-.579,4.052-1.447s1.447-2.605,1.447-4.342v-15.34h4.631v15.63c0,1.447-.289,2.894-.868,4.052s-1.158,2.316-2.026,2.894-2.026,1.447-3.184,1.737-2.605,.579-4.052,.579-2.894-.289-4.052-.579-2.316-.868-3.184-1.737c-.868-.868-1.737-1.737-2.026-3.184s-.868-2.605-.868-4.342v-15.051s4.631,0,4.631,0Z" fill="#003063"/><path d="M706.626,60.128l11.578,19.103h0l-.289-18.524h4.631l-.289,24.023-4.631,1.158-11.288-18.814h0l.289,18.235h-4.631l.289-24.023,4.342-1.158Z" fill="#003063"/><path d="M732.676,60.707l-.289,24.892h-4.631l.289-24.892h4.631Z" fill="#003063"/><path d="M740.49,60.128l6.368,19.682h0l7.236-19.682,4.342,1.447-9.551,24.023h-4.342l-8.973-24.023,4.92-1.447Z" fill="#003063"/><path d="M775.513,60.707v4.052h-8.683v6.368h8.683v3.763h-8.683v6.947h8.973v4.052h-13.604l.289-24.892h13.025v-.289Z" fill="#003063"/><path d="M788.248,60.707c2.605,0,4.631,.579,6.078,2.026,1.447,1.158,2.315,2.894,2.315,5.21,0,1.447-.579,2.894-1.447,4.052s-2.026,2.026-3.473,2.316l6.947,9.262-4.052,2.316-6.657-9.262c-.289-.289-.579-.579-.579-.868-.289-.289-.579-.289-1.158-.289h-1.158v9.841h-4.631l-.289-24.602h8.104Zm-3.473,11.288h2.894c.579,0,1.158,0,1.447-.289,.579,0,.868-.289,1.447-.579s.579-.579,.868-1.158c.289-.579,.289-1.158,.289-1.737s0-1.158-.289-1.447-.579-.868-.868-1.158c-.289-.289-.868-.579-1.447-.579s-1.158-.289-1.447-.289h-2.605l-.289,7.236Z" fill="#003063"/><path d="M813.719,65.628c-.868-.289-1.447-.868-2.315-1.158s-1.447-.579-2.605-.579-2.026,.289-2.894,.868c-.868,.579-1.158,1.447-1.158,2.605,0,.579,.289,1.158,.579,1.447,.289,.579,.579,.868,1.158,1.158,.289,.289,.868,.579,1.447,.868s.868,.579,1.447,.579c.579,.289,1.158,.579,1.447,.868,.579,.289,.868,.579,1.447,.868,1.158,.868,1.737,1.737,2.315,2.605,.579,.868,.579,2.026,.579,3.184s-.289,2.026-.579,2.894-.868,1.737-1.737,2.316-1.447,1.158-2.605,1.737c-.868,.289-2.026,.579-3.473,.579-2.315,0-4.631-.579-6.657-2.026l1.737-3.473c.289,.289,.579,.289,.868,.579,.289,.289,.868,.289,1.158,.579s.868,.289,1.158,.289h1.158c1.158,0,2.315-.289,2.894-1.158,.579-.579,1.158-1.447,1.158-2.605v-.579c0-.289-.289-.579-.289-.868-.289-.289-.579-.579-.868-.868-.289-.289-.868-.579-1.447-.868-.579-.289-1.158-.579-1.447-.579-.579-.289-.868-.289-1.158-.579s-.868-.289-1.158-.579-.868-.579-1.158-.868c-.868-.579-1.447-1.447-1.737-2.605-.289-.868-.579-1.737-.579-2.605,0-1.158,.289-2.026,.579-2.894s.868-1.737,1.737-2.316c.868-.579,1.737-1.158,2.605-1.447s2.026-.579,3.473-.579c1.158,0,2.315,.289,3.763,.579s2.315,.868,3.473,1.447l-2.316,3.184Z" fill="#003063"/><path d="M824.428,60.707l-.289,24.892h-4.631l.289-24.892h4.631Z" fill="#003063"/><path d="M846.136,60.707v4.052h-6.947l-.289,20.84h-4.631l.289-20.84h-6.947v-4.052s18.524,0,18.524,0Z" fill="#003063"/><path d="M858.871,60.707l8.973,24.023-4.631,1.158-2.315-7.236h-8.683l-2.894,7.236-4.342-1.158,9.551-24.023h4.342Zm-3.763-6.368v4.052h-4.052v-4.052s4.052,0,4.052,0Zm-1.737,20.84h6.078l-2.894-9.841h0l-3.184,9.841Zm8.104-20.84v4.052h-4.052v-4.052s4.052,0,4.052,0Z" fill="#003063"/><path d="M887.526,60.707v4.052h-6.947l-.289,20.84h-4.631l.289-20.84h-6.947v-4.052s18.524,0,18.524,0Z" fill="#003063"/><path d="M902.866,65.628c-.868-.289-1.447-.868-2.315-1.158s-1.447-.579-2.315-.579c-1.158,0-2.026,.289-2.894,.868-.868,.579-1.158,1.447-1.158,2.605,0,.579,.289,1.158,.579,1.447,.289,.579,.579,.868,1.158,1.158,.289,.289,.868,.579,1.447,.868s.868,.579,1.447,.579c.579,.289,1.158,.579,1.447,.868,.579,.289,.868,.579,1.447,.868,1.158,.868,1.737,1.737,2.315,2.605,.579,.868,.579,2.026,.579,3.184s-.289,2.026-.579,2.894-.868,1.737-1.737,2.316c-.579,.579-1.447,1.158-2.605,1.737-.868,.289-2.026,.579-3.473,.579-2.315,0-4.631-.579-6.657-2.026l1.737-3.473c.289,.289,.579,.289,.868,.579s.868,.289,1.158,.579,.868,.289,1.158,.289h1.158c1.158,0,2.315-.289,2.894-1.158,.579-.579,1.158-1.447,1.158-2.605v-.579c0-.289-.289-.579-.289-.868-.289-.289-.579-.579-.868-.868-.289-.289-.868-.579-1.447-.868-.579-.289-1.158-.579-1.447-.579-.579-.289-.868-.289-1.158-.579s-.868-.289-1.158-.579-.868-.579-1.158-.868c-.868-.579-1.447-1.447-1.737-2.605-.289-.868-.579-1.737-.579-2.605,0-1.158,.289-2.026,.579-2.894s.868-1.737,1.737-2.316c.868-.579,1.737-1.158,2.605-1.447s2.026-.579,3.473-.579c1.158,0,2.315,.289,3.763,.579s2.315,.868,3.473,1.447l-2.605,3.184Z" fill="#003063"/><path d="M694.47,103.255l-8.973,9.841,8.683,10.709-3.763,2.605-9.841-12.446h0v11.867h-4.631l.289-24.892h4.631v11.578h.289l10.13-12.156,3.184,2.894Z" fill="#003063"/><path d="M703.153,100.939l-.289,20.84h9.841v4.052h-14.472l.289-24.892h4.631Z" fill="#003063"/><path d="M720.809,100.939l-.289,24.892h-4.631l.289-24.892h4.631Z" fill="#003063"/><path d="M730.36,100.361l11.578,19.103h0l-.289-18.524h4.631l-.289,24.023-4.631,1.158-11.288-18.814h0l.289,18.235h-4.631l.289-24.023,4.342-1.158Z" fill="#003063"/><path d="M756.699,100.939l-.289,24.892h-4.631l.289-24.892h4.631Z" fill="#003063"/><path d="M780.433,103.255l-8.973,9.841,8.683,10.709-3.763,2.605-9.841-12.446h0v11.867h-4.631l.289-24.892h4.631v11.578h.289l10.13-12.156,3.184,2.894Z" fill="#003063"/><path d="M807.93,100.939v4.052h-9.262v6.368h8.973v4.052h-8.973v10.42h-4.631l.289-24.892h13.604Z" fill="#003063"/><path d="M816.613,100.939v15.63c0,1.158,.289,2.026,.579,2.605,.289,.868,.868,1.447,1.158,1.737,.579,.579,1.158,.868,1.737,.868,.579,.289,1.447,.289,2.026,.289,1.737,0,2.894-.579,4.052-1.447s1.447-2.605,1.447-4.342v-15.34h4.631v15.63c0,1.447-.289,2.894-.868,4.052s-1.158,2.316-2.026,2.894-2.026,1.447-3.184,1.737-2.605,.579-4.052,.579-2.894-.289-4.052-.579c-1.158-.289-2.315-.868-3.184-1.737-.868-.868-1.737-1.737-2.026-3.184s-.868-2.605-.868-4.342v-15.051s4.631,0,4.631,0Zm4.342-6.368v4.052h-4.052v-4.052h4.052Zm6.368,0v4.052h-4.052v-4.052h4.052Z" fill="#003063"/><path d="M846.136,100.939c2.605,0,4.631,.579,6.078,2.026,1.447,1.158,2.315,2.894,2.315,5.21,0,1.447-.579,2.894-1.447,4.052s-2.026,2.026-3.473,2.316l6.947,9.262-4.052,2.316-6.657-9.262c-.289-.289-.579-.579-.579-.868-.289-.289-.579-.289-1.158-.289h-1.158v9.841h-4.631l.289-24.892h7.525v.289Zm-3.473,11.288h2.894c.579,0,1.158,0,1.447-.289,.579,0,.868-.289,1.447-.579s.579-.579,.868-1.158c.289-.579,.289-1.158,.289-1.737s0-1.158-.289-1.447-.579-.868-.868-1.158c-.289-.289-.868-.579-1.447-.579s-1.158-.289-1.447-.289h-2.605l-.289,7.236Z" fill="#003063"/><path d="M680.576,140.593l11.578,19.103h0l-.289-18.524h4.631l-.289,24.023-4.631,1.158-11.288-18.814h0l.289,18.235h-4.631l.289-24.023,4.342-1.158Z" fill="#009870"/><path d="M727.466,153.617c0,1.737-.289,3.473-1.158,4.92s-1.737,2.894-2.894,4.052-2.605,2.026-4.342,2.605-3.473,.868-5.21,.868c-2.026,0-3.763-.289-5.21-.868-1.737-.579-2.894-1.447-4.342-2.605-1.158-1.158-2.026-2.605-2.894-4.052-.579-1.447-.868-3.184-.868-5.21,0-1.737,.289-3.473,1.158-4.92,.579-1.447,1.737-2.894,2.894-4.052s2.605-2.026,4.342-2.894c1.737-.579,3.473-1.158,5.21-1.158,2.026,0,3.763,.289,5.21,.868,1.737,.579,3.184,1.447,4.342,2.605s2.026,2.605,2.894,4.052c.579,2.026,.868,3.763,.868,5.789Zm-13.314,9.262c1.158,0,2.316-.289,3.473-.868s2.026-1.158,2.605-2.026c.868-.868,1.447-1.737,1.737-2.894s.579-2.316,.579-3.473c0-1.447-.289-2.605-.579-3.763-.289-1.158-.868-2.026-1.737-2.894s-1.737-1.447-2.605-2.026c-1.158-.579-2.316-.579-3.473-.579s-2.026,.289-3.184,.579-2.026,1.158-2.605,1.737-1.447,1.737-2.026,2.894-.579,2.316-.579,3.763,.289,2.605,.579,3.763c.289,1.158,.868,2.026,1.737,2.894s1.737,1.447,2.605,1.737,2.316,1.158,3.473,1.158Z" fill="#009870"/><path d="M748.305,141.171v4.052h-6.947l-.289,20.84h-4.342l.289-20.84h-6.947v-4.052h18.235Z" fill="#009870"/><path d="M765.961,141.171v4.052h-9.262v6.368h8.973v4.052h-8.973v10.42h-4.631l.289-24.892s13.604,0,13.604,0Z" fill="#009870"/><path d="M780.144,141.171l8.973,24.023-4.631,1.158-2.315-7.236h-8.683l-2.894,7.236-4.342-1.158,9.551-24.023h4.342Zm-5.21,14.472h6.078l-2.894-9.841h0l-3.184,9.841Z" fill="#009870"/><path d="M797.51,141.171l-.289,20.84h9.841v4.052h-14.472l.289-24.892s4.631,0,4.631,0Z" fill="#009870"/><path d="M815.455,141.171l-.289,20.84h9.841v4.052h-14.472l.289-24.892s4.631,0,4.631,0Z" fill="#009870"/><path d="M836.584,141.171l6.078,19.971h0l6.947-19.971h4.631l3.763,24.892-4.631,.579-1.737-19.682h0l-6.368,19.103h-4.631l-5.789-19.103h0l-2.605,19.682-4.342-.579,4.342-24.892s4.342,0,4.342,0Z" fill="#009870"/><path d="M875.948,141.171v4.052h-8.683v6.368h8.683v3.763h-8.683v6.947h8.973v4.052h-13.604l.289-24.892h13.025v-.289Z" fill="#009870"/><path d="M888.683,141.171c1.737,0,3.473,.289,5.21,.868s2.894,1.447,4.052,2.316c1.158,1.158,2.026,2.316,2.605,3.763s.868,3.184,.868,5.21-.289,3.473-1.158,5.21c-.868,1.447-1.737,2.894-2.894,4.052s-2.605,2.026-4.052,2.605-3.184,.868-4.631,.868h-8.683l.289-24.892s8.394,0,8.394,0Zm-3.763,20.84h3.184c1.158,0,2.315-.289,3.473-.579,1.158-.289,2.026-.868,2.894-1.737s1.447-1.737,1.737-2.605c.579-1.158,.579-2.316,.579-3.763,0-1.158-.289-2.316-.579-3.473s-.868-2.026-1.737-2.605c-.579-.868-1.447-1.158-2.605-1.737s-2.026-.579-3.184-.579h-4.052l.289,17.077Z" fill="#009870"/><path d="M910.97,141.171l-.289,24.892h-4.631l.289-24.892s4.631,0,4.631,0Z" fill="#009870"/><path d="M930.942,141.171l1.447,3.184-11.578,17.656h10.999v4.052h-15.63l-1.447-2.894,11.867-17.945h-11.288v-4.052s15.63,0,15.63,0Z" fill="#009870"/><path d="M940.782,141.171l-.289,24.892h-4.631l.289-24.892s4.631,0,4.631,0Z" fill="#009870"/><path d="M950.623,140.593l11.578,19.103h0l-.289-18.524h4.631l-.289,24.023-4.631,1.158-11.288-18.814h0l.289,18.235h-4.631l.289-24.023,4.342-1.158Z" fill="#009870"/></g></svg>